<svg width="20" height="21" viewBox="0 0 20 21" fill="none" xmlns="http://www.w3.org/2000/svg">
<g filter="url(#filter0_d_51746_3128)">
<path fill-rule="evenodd" clip-rule="evenodd" d="M2.70214 2.52751C2.4227 2.43437 2.12066 2.58538 2.02751 2.86482C1.93437 3.14426 2.08539 3.44629 2.36483 3.53943L4.17214 4.14186L4.35349 5.87604L4.88072 12.2561C4.98074 13.48 5.98389 14.4431 7.2171 14.4431H14.9693C16.1442 14.4431 17.1312 13.566 17.2953 12.3944L17.9698 7.63763L17.97 7.63619C18.0439 7.13197 18.0052 6.46833 17.5781 5.9668C17.4056 5.7641 17.209 5.58807 16.9643 5.46658C16.7163 5.34345 16.4527 5.293 16.1702 5.293H5.36502L5.19728 3.68911C5.17551 3.48097 5.03403 3.3048 4.83549 3.23862L2.70214 2.52751ZM5.94379 12.1685L5.46378 6.35966L16.1702 6.35967C16.3212 6.35967 16.4163 6.38542 16.4899 6.42194C16.5667 6.46011 16.6543 6.52717 16.766 6.6583C16.907 6.82392 16.9682 7.11739 16.9145 7.48238L16.914 7.48513L16.239 12.2457L16.2389 12.2467C16.1469 12.905 15.5991 13.3765 14.9693 13.3765H7.2171C6.56031 13.3765 6.00024 12.8602 5.94379 12.1685ZM5.48996 16.8709C5.48996 15.9774 6.20138 15.2345 7.10336 15.2345C8.00048 15.2345 8.70964 15.9798 8.70964 16.8709C8.70964 17.7571 7.99822 18.5 7.10336 18.5C6.20365 18.5 5.48996 17.7595 5.48996 16.8709ZM7.10336 16.3012C6.81158 16.3012 6.55663 16.5452 6.55663 16.8709C6.55663 17.187 6.80931 17.4333 7.10336 17.4333C7.38802 17.4333 7.64297 17.1893 7.64297 16.8709C7.64297 16.5429 7.38576 16.3012 7.10336 16.3012ZM13.4837 16.8709C13.4837 15.9774 14.1952 15.2345 15.0972 15.2345C15.9943 15.2345 16.7035 15.9798 16.7035 16.8709C16.7035 17.7571 15.9921 18.5 15.0972 18.5C14.1975 18.5 13.4837 17.7595 13.4837 16.8709ZM15.0972 16.3012C14.8054 16.3012 14.5504 16.5452 14.5504 16.8709C14.5504 17.187 14.8032 17.4333 15.0972 17.4333C15.3819 17.4333 15.6368 17.1893 15.6368 16.8709C15.6368 16.5429 15.3796 16.3012 15.0972 16.3012ZM11.0669 8.18899C10.7723 8.18899 10.5336 8.42776 10.5336 8.7223C10.5336 9.01684 10.7723 9.25563 11.0669 9.25563H14.6225C14.9171 9.25563 15.1559 9.01684 15.1559 8.7223C15.1559 8.42776 14.9171 8.18899 14.6225 8.18899H11.0669Z" fill="white"/>
</g>
<defs>
<filter id="filter0_d_51746_3128" x="-8" y="-2.5" width="36" height="36" filterUnits="userSpaceOnUse" color-interpolation-filters="sRGB">
<feFlood flood-opacity="0" result="BackgroundImageFix"/>
<feColorMatrix in="SourceAlpha" type="matrix" values="0 0 0 0 0 0 0 0 0 0 0 0 0 0 0 0 0 0 127 0" result="hardAlpha"/>
<feOffset dy="5"/>
<feGaussianBlur stdDeviation="5"/>
<feComposite in2="hardAlpha" operator="out"/>
<feColorMatrix type="matrix" values="0 0 0 0 0.8375 0 0 0 0 0.8375 0 0 0 0 0.8375 0 0 0 0.2 0"/>
<feBlend mode="normal" in2="BackgroundImageFix" result="effect1_dropShadow_51746_3128"/>
<feBlend mode="normal" in="SourceGraphic" in2="effect1_dropShadow_51746_3128" result="shape"/>
</filter>
</defs>
</svg>
