<svg width="36" height="37" viewBox="0 0 36 37" fill="none" xmlns="http://www.w3.org/2000/svg">
<rect y="0.5" width="36" height="36" rx="18" fill="#DD3CEF"/>
<g clip-path="url(#clip0_51801_3252)">
<g filter="url(#filter0_d_51801_3252)">
<path fill-rule="evenodd" clip-rule="evenodd" d="M23.304 10.9111C22.7526 10.363 21.8585 10.363 21.3071 10.9111L19.0247 13.1795C18.4732 13.7276 18.4732 14.6163 19.0247 15.1644L21.3071 17.4329C21.8585 17.981 22.7526 17.981 23.304 17.4329L25.5864 15.1644C26.1379 14.6163 26.1379 13.7276 25.5864 13.1795L23.304 10.9111ZM22.1629 11.7618C22.2417 11.6835 22.3694 11.6835 22.4482 11.7618L24.7305 14.0302C24.8093 14.1085 24.8093 14.2355 24.7305 14.3138L22.4482 16.5822C22.3694 16.6605 22.2417 16.6605 22.1629 16.5822L19.8806 14.3138C19.8018 14.2355 19.8018 14.1085 19.8806 14.0302L22.1629 11.7618ZM11.4121 10.8607C10.6322 10.8607 10 11.4891 10 12.2642V16.2743C10 17.0495 10.6322 17.6778 11.4121 17.6778H15.4467C16.2266 17.6778 16.8588 17.0495 16.8588 16.2743V12.2642C16.8588 11.4891 16.2266 10.8607 15.4467 10.8607H11.4121ZM11.2104 12.2642C11.2104 12.1535 11.3007 12.0637 11.4121 12.0637H15.4467C15.5581 12.0637 15.6484 12.1535 15.6484 12.2642V16.2743C15.6484 16.385 15.5581 16.4748 15.4467 16.4748H11.4121C11.3007 16.4748 11.2104 16.385 11.2104 16.2743V12.2642ZM10 21.0864C10 20.3112 10.6322 19.6829 11.4121 19.6829H15.4467C16.2266 19.6829 16.8588 20.3112 16.8588 21.0864V25.0965C16.8588 25.8716 16.2266 26.5 15.4467 26.5H11.4121C10.6322 26.5 10 25.8716 10 25.0965V21.0864ZM11.4121 20.8859C11.3007 20.8859 11.2104 20.9757 11.2104 21.0864V25.0965C11.2104 25.2072 11.3007 25.297 11.4121 25.297H15.4467C15.5581 25.297 15.6484 25.2072 15.6484 25.0965V21.0864C15.6484 20.9757 15.5581 20.8859 15.4467 20.8859H11.4121ZM20.2882 19.6829C19.5084 19.6829 18.8761 20.3112 18.8761 21.0864V25.0965C18.8761 25.8716 19.5084 26.5 20.2882 26.5H24.3229C25.1027 26.5 25.735 25.8716 25.735 25.0965V21.0864C25.735 20.3112 25.1027 19.6829 24.3229 19.6829H20.2882ZM20.0865 21.0864C20.0865 20.9757 20.1768 20.8859 20.2882 20.8859H24.3229C24.4343 20.8859 24.5246 20.9757 24.5246 21.0864V25.0965C24.5246 25.2072 24.4343 25.297 24.3229 25.297H20.2882C20.1768 25.297 20.0865 25.2072 20.0865 25.0965V21.0864Z" fill="white"/>
</g>
</g>
<defs>
<filter id="filter0_d_51801_3252" x="0" y="5.5" width="36" height="36" filterUnits="userSpaceOnUse" color-interpolation-filters="sRGB">
<feFlood flood-opacity="0" result="BackgroundImageFix"/>
<feColorMatrix in="SourceAlpha" type="matrix" values="0 0 0 0 0 0 0 0 0 0 0 0 0 0 0 0 0 0 127 0" result="hardAlpha"/>
<feOffset dy="5"/>
<feGaussianBlur stdDeviation="5"/>
<feComposite in2="hardAlpha" operator="out"/>
<feColorMatrix type="matrix" values="0 0 0 0 0.8375 0 0 0 0 0.8375 0 0 0 0 0.8375 0 0 0 0.2 0"/>
<feBlend mode="normal" in2="BackgroundImageFix" result="effect1_dropShadow_51801_3252"/>
<feBlend mode="normal" in="SourceGraphic" in2="effect1_dropShadow_51801_3252" result="shape"/>
</filter>
<clipPath id="clip0_51801_3252">
<rect width="20" height="20" fill="white" transform="translate(8 8.5)"/>
</clipPath>
</defs>
</svg>
