<svg width="36" height="37" viewBox="0 0 36 37" fill="none" xmlns="http://www.w3.org/2000/svg">
<rect y="0.5" width="36" height="36" rx="18" fill="#EF3C60"/>
<g clip-path="url(#clip0_50261_14146)">
<g filter="url(#filter0_d_50261_14146)">
<path fill-rule="evenodd" clip-rule="evenodd" d="M10.7021 10.5275C10.4227 10.4344 10.1207 10.5854 10.0275 10.8648C9.93437 11.1443 10.0854 11.4463 10.3648 11.5394L12.1721 12.1419L12.3535 13.876L12.8807 20.2561C12.9807 21.48 13.9839 22.4431 15.2171 22.4431H22.9693C24.1442 22.4431 25.1312 21.566 25.2953 20.3944L25.9698 15.6376L25.97 15.6362C26.0439 15.132 26.0052 14.4683 25.5781 13.9668C25.4056 13.7641 25.209 13.5881 24.9643 13.4666C24.7163 13.3434 24.4527 13.293 24.1702 13.293H13.365L13.1973 11.6891C13.1755 11.481 13.034 11.3048 12.8355 11.2386L10.7021 10.5275ZM13.9438 20.1685L13.4638 14.3597L24.1702 14.3597C24.3212 14.3597 24.4163 14.3854 24.4899 14.4219C24.5667 14.4601 24.6543 14.5272 24.766 14.6583C24.907 14.8239 24.9682 15.1174 24.9145 15.4824L24.914 15.4851L24.239 20.2457L24.2389 20.2467C24.1469 20.905 23.5991 21.3765 22.9693 21.3765H15.2171C14.5603 21.3765 14.0002 20.8602 13.9438 20.1685ZM13.49 24.8709C13.49 23.9774 14.2014 23.2345 15.1034 23.2345C16.0005 23.2345 16.7096 23.9798 16.7096 24.8709C16.7096 25.7571 15.9982 26.5 15.1034 26.5C14.2037 26.5 13.49 25.7595 13.49 24.8709ZM15.1034 24.3012C14.8116 24.3012 14.5566 24.5452 14.5566 24.8709C14.5566 25.187 14.8093 25.4333 15.1034 25.4333C15.388 25.4333 15.643 25.1893 15.643 24.8709C15.643 24.5429 15.3858 24.3012 15.1034 24.3012ZM21.4837 24.8709C21.4837 23.9774 22.1952 23.2345 23.0972 23.2345C23.9943 23.2345 24.7035 23.9798 24.7035 24.8709C24.7035 25.7571 23.9921 26.5 23.0972 26.5C22.1975 26.5 21.4837 25.7595 21.4837 24.8709ZM23.0972 24.3012C22.8054 24.3012 22.5504 24.5452 22.5504 24.8709C22.5504 25.187 22.8032 25.4333 23.0972 25.4333C23.3819 25.4333 23.6368 25.1893 23.6368 24.8709C23.6368 24.5429 23.3796 24.3012 23.0972 24.3012ZM19.0669 16.189C18.7723 16.189 18.5336 16.4278 18.5336 16.7223C18.5336 17.0168 18.7723 17.2556 19.0669 17.2556H22.6225C22.9171 17.2556 23.1559 17.0168 23.1559 16.7223C23.1559 16.4278 22.9171 16.189 22.6225 16.189H19.0669Z" fill="white"/>
</g>
</g>
<defs>
<filter id="filter0_d_50261_14146" x="0" y="5.5" width="36" height="36" filterUnits="userSpaceOnUse" color-interpolation-filters="sRGB">
<feFlood flood-opacity="0" result="BackgroundImageFix"/>
<feColorMatrix in="SourceAlpha" type="matrix" values="0 0 0 0 0 0 0 0 0 0 0 0 0 0 0 0 0 0 127 0" result="hardAlpha"/>
<feOffset dy="5"/>
<feGaussianBlur stdDeviation="5"/>
<feComposite in2="hardAlpha" operator="out"/>
<feColorMatrix type="matrix" values="0 0 0 0 0.8375 0 0 0 0 0.8375 0 0 0 0 0.8375 0 0 0 0.2 0"/>
<feBlend mode="normal" in2="BackgroundImageFix" result="effect1_dropShadow_50261_14146"/>
<feBlend mode="normal" in="SourceGraphic" in2="effect1_dropShadow_50261_14146" result="shape"/>
</filter>
<clipPath id="clip0_50261_14146">
<rect width="20" height="20" fill="white" transform="translate(8 8.5)"/>
</clipPath>
</defs>
</svg>
