<svg width="20" height="21" viewBox="0 0 20 21" fill="none" xmlns="http://www.w3.org/2000/svg">
<g filter="url(#filter0_d_51752_3255)">
<path fill-rule="evenodd" clip-rule="evenodd" d="M15.304 2.91109C14.7526 2.36297 13.8585 2.36297 13.3071 2.91109L11.0247 5.17953C10.4732 5.72764 10.4732 6.61631 11.0247 7.16442L13.3071 9.43288C13.8585 9.98098 14.7526 9.98098 15.304 9.43288L17.5864 7.16442C18.1379 6.61631 18.1379 5.72764 17.5864 5.17953L15.304 2.91109ZM14.1629 3.76175C14.2417 3.68345 14.3694 3.68345 14.4482 3.76175L16.7305 6.03019C16.8093 6.10849 16.8093 6.23545 16.7305 6.31376L14.4482 8.5822C14.3694 8.6605 14.2417 8.6605 14.1629 8.5822L11.8806 6.31376C11.8018 6.23545 11.8018 6.10849 11.8806 6.03019L14.1629 3.76175ZM3.41211 2.8607C2.63222 2.8607 2 3.48908 2 4.26422V8.27431C2 9.04945 2.63222 9.67781 3.41211 9.67781H7.44672C8.22661 9.67781 8.85883 9.04945 8.85883 8.27431V4.26422C8.85883 3.48908 8.22661 2.8607 7.44672 2.8607H3.41211ZM3.21038 4.26422C3.21038 4.15348 3.3007 4.06372 3.41211 4.06372H7.44672C7.55813 4.06372 7.64845 4.15348 7.64845 4.26422V8.27431C7.64845 8.38504 7.55813 8.47481 7.44672 8.47481H3.41211C3.3007 8.47481 3.21038 8.38504 3.21038 8.27431V4.26422ZM2 13.0864C2 12.3112 2.63222 11.6829 3.41211 11.6829H7.44672C8.22661 11.6829 8.85883 12.3112 8.85883 13.0864V17.0965C8.85883 17.8716 8.22661 18.5 7.44672 18.5H3.41211C2.63222 18.5 2 17.8716 2 17.0965V13.0864ZM3.41211 12.8859C3.3007 12.8859 3.21038 12.9757 3.21038 13.0864V17.0965C3.21038 17.2072 3.3007 17.297 3.41211 17.297H7.44672C7.55813 17.297 7.64845 17.2072 7.64845 17.0965V13.0864C7.64845 12.9757 7.55813 12.8859 7.44672 12.8859H3.41211ZM12.2882 11.6829C11.5084 11.6829 10.8761 12.3112 10.8761 13.0864V17.0965C10.8761 17.8716 11.5084 18.5 12.2882 18.5H16.3229C17.1027 18.5 17.735 17.8716 17.735 17.0965V13.0864C17.735 12.3112 17.1027 11.6829 16.3229 11.6829H12.2882ZM12.0865 13.0864C12.0865 12.9757 12.1768 12.8859 12.2882 12.8859H16.3229C16.4343 12.8859 16.5246 12.9757 16.5246 13.0864V17.0965C16.5246 17.2072 16.4343 17.297 16.3229 17.297H12.2882C12.1768 17.297 12.0865 17.2072 12.0865 17.0965V13.0864Z" fill="white"/>
</g>
<defs>
<filter id="filter0_d_51752_3255" x="-8" y="-2.5" width="36" height="36" filterUnits="userSpaceOnUse" color-interpolation-filters="sRGB">
<feFlood flood-opacity="0" result="BackgroundImageFix"/>
<feColorMatrix in="SourceAlpha" type="matrix" values="0 0 0 0 0 0 0 0 0 0 0 0 0 0 0 0 0 0 127 0" result="hardAlpha"/>
<feOffset dy="5"/>
<feGaussianBlur stdDeviation="5"/>
<feComposite in2="hardAlpha" operator="out"/>
<feColorMatrix type="matrix" values="0 0 0 0 0.8375 0 0 0 0 0.8375 0 0 0 0 0.8375 0 0 0 0.2 0"/>
<feBlend mode="normal" in2="BackgroundImageFix" result="effect1_dropShadow_51752_3255"/>
<feBlend mode="normal" in="SourceGraphic" in2="effect1_dropShadow_51752_3255" result="shape"/>
</filter>
</defs>
</svg>
