<svg width="36" height="33" viewBox="0 0 36 33" fill="none" xmlns="http://www.w3.org/2000/svg">
<g filter="url(#filter0_d_51746_3137)">
<path d="M23.2093 11.5C23.2093 11.9103 22.8761 12.2429 22.4651 12.2429C22.0541 12.2429 21.7209 11.9103 21.7209 11.5C21.7209 11.0897 22.0541 10.7571 22.4651 10.7571C22.8761 10.7571 23.2093 11.0897 23.2093 11.5Z" fill="white"/>
<path fill-rule="evenodd" clip-rule="evenodd" d="M16.4696 5H18.7862C20.1538 4.99999 21.2371 4.99998 22.0848 5.11376C22.9573 5.23085 23.6635 5.47757 24.2205 6.03349C24.9084 6.72018 25.1276 7.63984 25.2072 8.8332C25.6368 9.0219 25.9611 9.42097 25.9969 9.92647C26 9.97119 26 10.0194 26 10.0641C26 10.0681 26 10.0722 26 10.0762V12.9238C26 12.9278 26 12.9319 26 12.9359C26 12.9806 26 13.0288 25.9969 13.0735C25.9611 13.579 25.6368 13.9781 25.2072 14.1668C25.1276 15.3602 24.9084 16.2798 24.2205 16.9665C23.6635 17.5224 22.9573 17.7691 22.0848 17.8862C21.2371 18 20.1538 18 18.7862 18H16.4696C15.102 18 14.0187 18 13.171 17.8862C12.2985 17.7691 11.5923 17.5224 11.0353 16.9665C10.4784 16.4106 10.2313 15.7056 10.114 14.8347C9.99998 13.9884 9.99999 12.9071 10 11.5419V11.4581C9.99999 10.0929 9.99998 9.01157 10.114 8.1653C10.2313 7.29436 10.4784 6.58942 11.0353 6.0335C11.5923 5.47757 12.2985 5.23085 13.171 5.11376C14.0187 4.99998 15.102 4.99999 16.4696 5ZM24.0784 14.2857H22.6368C21.0404 14.2857 19.6744 13.0767 19.6744 11.5C19.6744 9.92333 21.0404 8.71429 22.6368 8.71429H24.0784C23.9937 7.71778 23.8021 7.19175 23.4311 6.82141C23.1162 6.50703 22.6848 6.31859 21.9361 6.21811C21.1713 6.11547 20.1632 6.11429 18.7442 6.11429H16.5116C15.0926 6.11429 14.0845 6.11547 13.3197 6.21811C12.571 6.31859 12.1396 6.50703 11.8247 6.82141C11.5097 7.1358 11.3209 7.56639 11.2203 8.31377C11.1175 9.07718 11.1163 10.0835 11.1163 11.5C11.1163 12.9165 11.1175 13.9228 11.2203 14.6862C11.3209 15.4336 11.5097 15.8642 11.8247 16.1786C12.1396 16.493 12.571 16.6814 13.3197 16.7819C14.0845 16.8845 15.0926 16.8857 16.5116 16.8857H18.7442C20.1632 16.8857 21.1713 16.8845 21.9361 16.7819C22.6848 16.6814 23.1162 16.493 23.4311 16.1786C23.8021 15.8083 23.9937 15.2822 24.0784 14.2857ZM24.6408 9.82874C24.6256 9.82858 24.6058 9.82857 24.5736 9.82857H22.6368C21.5776 9.82857 20.7907 10.6151 20.7907 11.5C20.7907 12.3849 21.5776 13.1714 22.6368 13.1714H24.5736C24.6058 13.1714 24.6256 13.1714 24.6408 13.1713C24.65 13.1712 24.6549 13.171 24.6572 13.1709L24.6589 13.1709C24.8123 13.1615 24.8783 13.0582 24.8833 12.996C24.8833 12.996 24.8835 12.9914 24.8835 12.9847C24.8837 12.9715 24.8837 12.9539 24.8837 12.9238V10.0762C24.8837 10.0461 24.8837 10.0285 24.8835 10.0153C24.8835 10.0086 24.8833 10.004 24.8833 10.004C24.8783 9.9418 24.8123 9.83845 24.6589 9.82913C24.6589 9.82913 24.6552 9.82889 24.6408 9.82874ZM14.2791 8.71429C14.5873 8.71429 14.8372 8.96373 14.8372 9.27143V13.7286C14.8372 14.0363 14.5873 14.2857 14.2791 14.2857C13.9708 14.2857 13.7209 14.0363 13.7209 13.7286V9.27143C13.7209 8.96373 13.9708 8.71429 14.2791 8.71429Z" fill="white"/>
</g>
<defs>
<filter id="filter0_d_51746_3137" x="0" y="0" width="36" height="33" filterUnits="userSpaceOnUse" color-interpolation-filters="sRGB">
<feFlood flood-opacity="0" result="BackgroundImageFix"/>
<feColorMatrix in="SourceAlpha" type="matrix" values="0 0 0 0 0 0 0 0 0 0 0 0 0 0 0 0 0 0 127 0" result="hardAlpha"/>
<feOffset dy="5"/>
<feGaussianBlur stdDeviation="5"/>
<feComposite in2="hardAlpha" operator="out"/>
<feColorMatrix type="matrix" values="0 0 0 0 0.8375 0 0 0 0 0.8375 0 0 0 0 0.8375 0 0 0 0.2 0"/>
<feBlend mode="normal" in2="BackgroundImageFix" result="effect1_dropShadow_51746_3137"/>
<feBlend mode="normal" in="SourceGraphic" in2="effect1_dropShadow_51746_3137" result="shape"/>
</filter>
</defs>
</svg>
