<svg width="36" height="37" viewBox="0 0 36 37" fill="none" xmlns="http://www.w3.org/2000/svg">
<rect y="0.5" width="36" height="36" rx="18" fill="#3CC8EF"/>
<g clip-path="url(#clip0_51801_3234)">
<g clip-path="url(#clip1_51801_3234)">
<g filter="url(#filter0_d_51801_3234)">
<path d="M17.9469 20.5497C15.9635 20.5497 14.3462 18.9324 14.3462 16.949C14.3462 14.9657 15.9635 13.3484 17.9469 13.3484C19.9302 13.3484 21.5475 14.9657 21.5475 16.949C21.5475 18.9324 19.9369 20.5497 17.9469 20.5497ZM17.9469 14.3401C16.5093 14.3401 15.3445 15.5048 15.3445 16.9424C15.3445 18.38 16.5093 19.5447 17.9469 19.5447C19.3845 19.5447 20.5492 18.38 20.5492 16.9424C20.5492 15.5114 19.3845 14.3401 17.9469 14.3401Z" fill="white"/>
</g>
<path d="M16.296 23.6385C15.677 23.6385 15.0647 23.4787 14.5189 23.1659C13.7203 22.7067 13.1412 21.9613 12.875 21.0627C12.8085 20.8231 12.8351 20.5769 12.9549 20.3639C13.0747 20.1509 13.2743 20.0045 13.5139 19.9446C14.4191 19.725 15.3575 19.8514 16.1562 20.3107C16.9549 20.7699 17.5339 21.5153 17.8001 22.4138C17.8667 22.6468 17.8401 22.8997 17.7203 23.106C17.6005 23.319 17.4008 23.4654 17.1612 23.5253C16.8817 23.6052 16.5888 23.6385 16.296 23.6385ZM15.0248 22.3007C15.5639 22.6135 16.1961 22.7133 16.8218 22.5869C16.6221 21.9879 16.2161 21.4887 15.677 21.1759C15.1379 20.8631 14.499 20.7632 13.88 20.8897C14.0797 21.4887 14.4857 21.9879 15.0248 22.3007Z" fill="white"/>
<path d="M19.5973 23.6379C19.3111 23.6379 19.0182 23.6046 18.7254 23.5314C18.4858 23.4715 18.2861 23.3251 18.1663 23.1121C18.0465 22.8991 18.0132 22.6528 18.0865 22.4199C18.346 21.5214 18.9317 20.776 19.7237 20.3167C20.5224 19.8575 21.4608 19.7244 22.366 19.9507C22.6056 20.0106 22.8053 20.157 22.9251 20.37C23.0449 20.583 23.0781 20.8292 23.0049 21.0622C22.7454 21.9607 22.1597 22.7061 21.361 23.1653C20.8286 23.4781 20.2162 23.6379 19.5973 23.6379ZM19.0781 22.5863C19.6971 22.7127 20.3294 22.6129 20.8751 22.3001C21.4142 21.9873 21.8202 21.4881 22.0199 20.8891C21.3943 20.7627 20.7687 20.8625 20.2229 21.1753C19.6838 21.4881 19.2778 21.9873 19.0781 22.5863Z" fill="white"/>
<path d="M18 26.5C13.5874 26.5 10 22.9126 10 18.5C10 14.0874 13.5874 10.5 18 10.5C18.193 10.5 18.3727 10.6131 18.4526 10.7928C18.5324 10.9725 18.5058 11.1789 18.3794 11.3253L17.2213 12.6631C17.0416 12.8694 16.7288 12.896 16.5158 12.7163C16.3095 12.5366 16.2829 12.2171 16.4626 12.0108L16.8153 11.5982C13.5208 12.1572 10.9983 15.0391 10.9983 18.5C10.9983 22.3602 14.1398 25.5017 18 25.5017C21.8602 25.5017 25.0017 22.3602 25.0017 18.5C25.0017 15.7779 23.4043 13.282 20.9351 12.1439C20.6822 12.0308 20.5757 11.7313 20.6889 11.4784C20.802 11.2255 21.1015 11.119 21.3544 11.2321C24.1764 12.5366 26 15.3852 26 18.5C26 22.9126 22.4126 26.5 18 26.5Z" fill="white"/>
<path d="M17.5873 17.8207L17.1547 16.9621H16.7021C16.6888 16.9621 16.6822 16.9688 16.6822 16.9821V17.7342C16.6822 17.8673 16.5957 17.9538 16.4759 17.9538C16.3561 17.9538 16.2695 17.8673 16.2695 17.7342V15.7176C16.2695 15.6044 16.3427 15.5312 16.4559 15.5312H17.2346C17.6739 15.5312 18 15.824 18 16.25C18 16.5562 17.8269 16.7891 17.574 16.8956L17.9667 17.6277C17.9867 17.6676 18 17.7142 18 17.7542C18 17.8606 17.9201 17.9538 17.8003 17.9538C17.7071 17.9538 17.6339 17.9139 17.5873 17.8207ZM17.5873 16.2433C17.5873 16.037 17.4409 15.8973 17.2213 15.8973H16.7088C16.6955 15.8973 16.6888 15.9039 16.6888 15.9172V16.5562C16.6888 16.5695 16.6955 16.5761 16.7088 16.5761H17.2213C17.4343 16.5828 17.5873 16.4497 17.5873 16.2433Z" fill="white"/>
<path d="M18.4526 18.3802V16.4168C18.4526 16.2837 18.5325 16.2105 18.6523 16.2105C18.7721 16.2105 18.832 16.2837 18.852 16.3902H18.8586C18.9385 16.2704 19.0783 16.1905 19.3179 16.1905C19.6041 16.1905 19.8104 16.3502 19.9036 16.6231C19.9435 16.7562 19.9635 16.8893 19.9635 17.0824C19.9635 17.2754 19.9435 17.4085 19.9036 17.5416C19.817 17.8078 19.6041 17.9742 19.3179 17.9742C19.0783 17.9742 18.9318 17.881 18.8586 17.7745H18.852V18.3802C18.852 18.5133 18.7721 18.5865 18.6523 18.5865C18.5325 18.5865 18.4526 18.5133 18.4526 18.3802ZM19.5175 17.3952C19.5442 17.322 19.5508 17.2155 19.5508 17.0824C19.5508 16.9492 19.5375 16.8428 19.5175 16.7695C19.4643 16.6098 19.3511 16.5433 19.2047 16.5433C19.0516 16.5433 18.9385 16.6098 18.8852 16.7695C18.8586 16.8428 18.852 16.9492 18.852 17.0824C18.852 17.2155 18.8653 17.322 18.8852 17.3952C18.9385 17.5616 19.0516 17.6215 19.2047 17.6215C19.3511 17.6215 19.4643 17.5549 19.5175 17.3952Z" fill="white"/>
</g>
</g>
<defs>
<filter id="filter0_d_51801_3234" x="4.34619" y="8.34838" width="27.2012" height="27.2013" filterUnits="userSpaceOnUse" color-interpolation-filters="sRGB">
<feFlood flood-opacity="0" result="BackgroundImageFix"/>
<feColorMatrix in="SourceAlpha" type="matrix" values="0 0 0 0 0 0 0 0 0 0 0 0 0 0 0 0 0 0 127 0" result="hardAlpha"/>
<feOffset dy="5"/>
<feGaussianBlur stdDeviation="5"/>
<feComposite in2="hardAlpha" operator="out"/>
<feColorMatrix type="matrix" values="0 0 0 0 0.8375 0 0 0 0 0.8375 0 0 0 0 0.8375 0 0 0 0.2 0"/>
<feBlend mode="normal" in2="BackgroundImageFix" result="effect1_dropShadow_51801_3234"/>
<feBlend mode="normal" in="SourceGraphic" in2="effect1_dropShadow_51801_3234" result="shape"/>
</filter>
<clipPath id="clip0_51801_3234">
<rect width="20" height="20" fill="white" transform="translate(8 8.5)"/>
</clipPath>
<clipPath id="clip1_51801_3234">
<rect width="20" height="20" fill="white" transform="translate(8 8.5)"/>
</clipPath>
</defs>
</svg>
