<svg width="36" height="37" viewBox="0 0 36 37" fill="none" xmlns="http://www.w3.org/2000/svg">
<rect y="0.5" width="36" height="36" rx="18" fill="#A1EF3C"/>
<path fill-rule="evenodd" clip-rule="evenodd" d="M18 11.6163C14.1982 11.6163 11.1163 14.6982 11.1163 18.5C11.1163 22.3018 14.1982 25.3837 18 25.3837C21.8018 25.3837 24.8837 22.3018 24.8837 18.5C24.8837 14.6982 21.8018 11.6163 18 11.6163ZM10 18.5C10 14.0817 13.5817 10.5 18 10.5C22.4183 10.5 26 14.0817 26 18.5C26 22.9183 22.4183 26.5 18 26.5C13.5817 26.5 10 22.9183 10 18.5ZM18 13.4767C18.3083 13.4767 18.5581 13.7266 18.5581 14.0349V14.2706C19.7715 14.4878 20.7907 15.3994 20.7907 16.6395C20.7907 16.9478 20.5408 17.1977 20.2326 17.1977C19.9243 17.1977 19.6744 16.9478 19.6744 16.6395C19.6744 16.1346 19.2546 15.6002 18.5581 15.4098V17.9915C19.7715 18.2088 20.7907 19.1204 20.7907 20.3605C20.7907 21.6006 19.7715 22.5122 18.5581 22.7294V22.9651C18.5581 23.2734 18.3083 23.5233 18 23.5233C17.6917 23.5233 17.4419 23.2734 17.4419 22.9651V22.7294C16.2285 22.5122 15.2093 21.6006 15.2093 20.3605C15.2093 20.0522 15.4592 19.8023 15.7674 19.8023C16.0757 19.8023 16.3256 20.0522 16.3256 20.3605C16.3256 20.8654 16.7454 21.3998 17.4419 21.5902V19.0085C16.2285 18.7912 15.2093 17.8796 15.2093 16.6395C15.2093 15.3994 16.2285 14.4878 17.4419 14.2706V14.0349C17.4419 13.7266 17.6917 13.4767 18 13.4767ZM17.4419 15.4098C16.7454 15.6002 16.3256 16.1346 16.3256 16.6395C16.3256 17.1444 16.7454 17.6789 17.4419 17.8693V15.4098ZM18.5581 19.1307V21.5902C19.2546 21.3998 19.6744 20.8654 19.6744 20.3605C19.6744 19.8556 19.2546 19.3211 18.5581 19.1307Z" fill="white"/>
</svg>
