<svg width="36" height="37" viewBox="0 0 36 37" fill="none" xmlns="http://www.w3.org/2000/svg">
<rect y="0.5" width="36" height="36" rx="18" fill="#EFDD3C"/>
<path fill-rule="evenodd" clip-rule="evenodd" d="M10 14.9381C10 13.0564 11.5283 11.5 13.4522 11.5H22.5478C24.4717 11.5 26 13.0564 26 14.9381C26 16.3997 25.0801 17.6625 23.7674 18.1556V21.4474C23.7675 21.6711 23.7675 21.882 23.765 22.0798C23.7666 22.0966 23.7674 22.1135 23.7674 22.1306C23.7674 22.1533 23.766 22.1756 23.7632 22.1975C23.7572 22.5238 23.7428 22.8127 23.708 23.0636C23.6452 23.5161 23.507 23.9246 23.168 24.2528C22.8291 24.5811 22.4073 24.7149 21.9401 24.7757C21.4974 24.8334 20.9399 24.8334 20.2712 24.8333H15.7287C15.0601 24.8334 14.5026 24.8334 14.0599 24.7757C13.5927 24.7149 13.1709 24.5811 12.832 24.2528C12.493 23.9246 12.3548 23.5161 12.292 23.0636C12.2572 22.8127 12.2428 22.5238 12.2368 22.1975C12.234 22.1756 12.2326 22.1533 12.2326 22.1306C12.2326 22.1135 12.2334 22.0966 12.235 22.0798C12.2325 21.882 12.2325 21.6711 12.2326 21.4474L12.2326 18.1556C10.9199 17.6625 10 16.3997 10 14.9381ZM12.2326 16.9483C12.2327 16.3449 12.2356 15.8384 12.292 15.4319C12.3548 14.9794 12.493 14.5709 12.832 14.2427C13.1709 13.9144 13.5927 13.7806 14.0599 13.7198C14.5025 13.6621 15.0601 13.6621 15.7287 13.6622H20.2713C20.9399 13.6621 21.4974 13.6621 21.9401 13.7198C22.4073 13.7806 22.8291 13.9144 23.168 14.2427C23.507 14.5709 23.6452 14.9794 23.708 15.4319C23.7644 15.8384 23.7673 16.3449 23.7674 16.9483C24.4327 16.5364 24.8837 15.7957 24.8837 14.9381C24.8837 13.6193 23.8205 12.5811 22.5478 12.5811H13.4522C12.1795 12.5811 11.1163 13.6193 11.1163 14.9381C11.1163 15.7957 11.5673 16.5364 12.2326 16.9483ZM17.4419 14.7432H15.7674C15.05 14.7432 14.5681 14.7444 14.2087 14.7912C13.8653 14.8359 13.7183 14.9132 13.6213 15.0071C13.5243 15.101 13.4445 15.2434 13.3984 15.576C13.35 15.9241 13.3488 16.3908 13.3488 17.0856V21.4099C13.3488 21.4717 13.3488 21.5318 13.3489 21.5901H22.6511C22.6512 21.5318 22.6512 21.4718 22.6512 21.4099V17.0856C22.6512 16.3908 22.65 15.9241 22.6016 15.576C22.5555 15.2434 22.4757 15.101 22.3787 15.0071C22.2817 14.9132 22.1347 14.8359 21.7913 14.7912C21.4319 14.7444 20.95 14.7432 20.2326 14.7432H18.5581V17.7865L19.0646 17.2143C19.2652 16.9876 19.6176 16.9614 19.8516 17.1557C20.0856 17.3499 20.1128 17.6912 19.9121 17.9178L18.4238 19.5995C18.3177 19.7193 18.1629 19.7883 18 19.7883C17.8371 19.7883 17.6823 19.7193 17.5762 19.5995L16.0879 17.9178C15.8872 17.6912 15.9144 17.3499 16.1484 17.1557C16.3824 16.9614 16.7348 16.9876 16.9354 17.2143L17.4419 17.7865V14.7432ZM22.6272 22.6712H13.3728C13.3794 22.7605 13.3877 22.8429 13.3984 22.9195C13.4445 23.2521 13.5243 23.3945 13.6213 23.4884C13.7183 23.5823 13.8653 23.6596 14.2087 23.7043C14.5681 23.7511 15.05 23.7523 15.7674 23.7523H20.2326C20.95 23.7523 21.4319 23.7511 21.7913 23.7043C22.1347 23.6596 22.2817 23.5823 22.3787 23.4884C22.4757 23.3945 22.5555 23.2521 22.6016 22.9195C22.6123 22.8429 22.6206 22.7605 22.6272 22.6712Z" fill="white"/>
</svg>
