<svg width="16" height="17" viewBox="0 0 16 17" fill="none" xmlns="http://www.w3.org/2000/svg">
<path fill-rule="evenodd" clip-rule="evenodd" d="M8 1.61628C4.19823 1.61628 1.11628 4.69823 1.11628 8.5C1.11628 12.3018 4.19823 15.3837 8 15.3837C11.8018 15.3837 14.8837 12.3018 14.8837 8.5C14.8837 4.69823 11.8018 1.61628 8 1.61628ZM0 8.5C0 4.08172 3.58172 0.5 8 0.5C12.4183 0.5 16 4.08172 16 8.5C16 12.9183 12.4183 16.5 8 16.5C3.58172 16.5 0 12.9183 0 8.5ZM8 3.47674C8.30825 3.47674 8.55814 3.72663 8.55814 4.03488V4.27059C9.77148 4.48785 10.7907 5.39943 10.7907 6.63953C10.7907 6.94779 10.5408 7.19767 10.2326 7.19767C9.92431 7.19767 9.67442 6.94779 9.67442 6.63953C9.67442 6.13464 9.25463 5.6002 8.55814 5.40975V7.99152C9.77148 8.20878 10.7907 9.12036 10.7907 10.3605C10.7907 11.6006 9.77148 12.5122 8.55814 12.7294V12.9651C8.55814 13.2734 8.30825 13.5233 8 13.5233C7.69175 13.5233 7.44186 13.2734 7.44186 12.9651V12.7294C6.22852 12.5122 5.2093 11.6006 5.2093 10.3605C5.2093 10.0522 5.45919 9.80233 5.76744 9.80233C6.07569 9.80233 6.32558 10.0522 6.32558 10.3605C6.32558 10.8654 6.74537 11.3998 7.44186 11.5902V9.00848C6.22852 8.79122 5.2093 7.87964 5.2093 6.63953C5.2093 5.39943 6.22852 4.48785 7.44186 4.27059V4.03488C7.44186 3.72663 7.69175 3.47674 8 3.47674ZM7.44186 5.40975C6.74537 5.6002 6.32558 6.13464 6.32558 6.63953C6.32558 7.14443 6.74537 7.67887 7.44186 7.86932V5.40975ZM8.55814 9.13068V11.5902C9.25462 11.3998 9.67442 10.8654 9.67442 10.3605C9.67442 9.85557 9.25463 9.32113 8.55814 9.13068Z" fill="white"/>
</svg>
