<svg width="20" height="21" viewBox="0 0 20 21" fill="none" xmlns="http://www.w3.org/2000/svg">
<g filter="url(#filter0_d_51752_3237)">
<path d="M9.94686 12.5497C7.9635 12.5497 6.34619 10.9324 6.34619 8.94905C6.34619 6.96569 7.9635 5.34838 9.94686 5.34838C11.9302 5.34838 13.5475 6.96569 13.5475 8.94905C13.5475 10.9324 11.9369 12.5497 9.94686 12.5497ZM9.94686 6.34006C8.50925 6.34006 7.34453 7.50479 7.34453 8.94239C7.34453 10.38 8.50925 11.5447 9.94686 11.5447C11.3845 11.5447 12.5492 10.38 12.5492 8.94239C12.5492 7.51144 11.3845 6.34006 9.94686 6.34006Z" fill="white"/>
</g>
<path d="M8.29597 15.6385C7.67701 15.6385 7.06469 15.4787 6.51894 15.1659C5.72027 14.7067 5.14123 13.9613 4.87501 13.0627C4.80845 12.8231 4.83508 12.5769 4.95488 12.3639C5.07468 12.1509 5.27434 12.0045 5.51395 11.9446C6.4191 11.725 7.35754 11.8514 8.15621 12.3107C8.95488 12.7699 9.53391 13.5153 9.80014 14.4138C9.86669 14.6468 9.84007 14.8997 9.72027 15.106C9.60047 15.319 9.4008 15.4654 9.1612 15.5253C8.88167 15.6052 8.58882 15.6385 8.29597 15.6385ZM7.02476 14.3007C7.56386 14.6135 8.19614 14.7133 8.82177 14.5869C8.6221 13.9879 8.21611 13.4887 7.67701 13.1759C7.13791 12.8631 6.49897 12.7632 5.88 12.8897C6.07967 13.4887 6.48566 13.9879 7.02476 14.3007Z" fill="white"/>
<path d="M11.5973 15.6379C11.3111 15.6379 11.0182 15.6046 10.7254 15.5314C10.4858 15.4715 10.2861 15.3251 10.1663 15.1121C10.0465 14.8991 10.0132 14.6528 10.0865 14.4199C10.346 13.5214 10.9317 12.776 11.7237 12.3167C12.5224 11.8575 13.4608 11.7244 14.366 11.9507C14.6056 12.0106 14.8053 12.157 14.9251 12.37C15.0449 12.583 15.0781 12.8292 15.0049 13.0622C14.7454 13.9607 14.1597 14.7061 13.361 15.1653C12.8286 15.4781 12.2162 15.6379 11.5973 15.6379ZM11.0781 14.5863C11.6971 14.7127 12.3294 14.6129 12.8751 14.3001C13.4142 13.9873 13.8202 13.4881 14.0199 12.8891C13.3943 12.7627 12.7687 12.8625 12.2229 13.1753C11.6838 13.4881 11.2778 13.9873 11.0781 14.5863Z" fill="white"/>
<path d="M10 18.5C5.58735 18.5 2 14.9126 2 10.5C2 6.08735 5.58735 2.5 10 2.5C10.193 2.5 10.3727 2.61314 10.4526 2.79285C10.5324 2.97255 10.5058 3.17887 10.3794 3.32529L9.2213 4.66306C9.0416 4.86938 8.72879 4.89601 8.51581 4.71631C8.30948 4.53661 8.28286 4.21714 8.46256 4.01082L8.81531 3.59817C5.5208 4.15724 2.99834 7.0391 2.99834 10.5C2.99834 14.3602 6.13977 17.5017 10 17.5017C13.8602 17.5017 17.0017 14.3602 17.0017 10.5C17.0017 7.77787 15.4043 5.28203 12.9351 4.14393C12.6822 4.03078 12.5757 3.73128 12.6889 3.47837C12.802 3.22546 13.1015 3.11897 13.3544 3.23211C16.1764 4.53661 18 7.38519 18 10.5C18 14.9126 14.4126 18.5 10 18.5Z" fill="white"/>
<path d="M9.58734 9.82071L9.15472 8.96214H8.70214C8.68883 8.96214 8.68218 8.9688 8.68218 8.98211V9.73419C8.68218 9.8673 8.59565 9.95383 8.47585 9.95383C8.35605 9.95383 8.26953 9.8673 8.26953 9.73419V7.71755C8.26953 7.60441 8.34274 7.5312 8.45589 7.5312H9.23459C9.67386 7.5312 9.99998 7.82404 9.99998 8.25C9.99998 8.55615 9.82694 8.7891 9.57402 8.89559L9.9667 9.6277C9.98667 9.66764 9.99998 9.71422 9.99998 9.75416C9.99998 9.86065 9.92011 9.95383 9.80031 9.95383C9.70714 9.95383 9.63392 9.91389 9.58734 9.82071ZM9.58734 8.24334C9.58734 8.03702 9.44091 7.89725 9.22128 7.89725H8.7088C8.69549 7.89725 8.68883 7.90391 8.68883 7.91722V8.55615C8.68883 8.56947 8.69549 8.57612 8.7088 8.57612H9.22128C9.43426 8.58278 9.58734 8.44967 9.58734 8.24334Z" fill="white"/>
<path d="M10.4526 10.3802V8.4168C10.4526 8.28369 10.5325 8.21048 10.6523 8.21048C10.7721 8.21048 10.832 8.28369 10.852 8.39018H10.8586C10.9385 8.27038 11.0783 8.19051 11.3179 8.19051C11.6041 8.19051 11.8104 8.35025 11.9036 8.62313C11.9435 8.75624 11.9635 8.88935 11.9635 9.08236C11.9635 9.27537 11.9435 9.40848 11.9036 9.5416C11.817 9.80782 11.6041 9.97421 11.3179 9.97421C11.0783 9.97421 10.9318 9.88103 10.8586 9.77454H10.852V10.3802C10.852 10.5133 10.7721 10.5865 10.6523 10.5865C10.5325 10.5865 10.4526 10.5133 10.4526 10.3802ZM11.5175 9.39517C11.5442 9.32196 11.5508 9.21547 11.5508 9.08236C11.5508 8.94925 11.5375 8.84276 11.5175 8.76955C11.4643 8.60981 11.3511 8.54326 11.2047 8.54326C11.0516 8.54326 10.9385 8.60981 10.8852 8.76955C10.8586 8.84276 10.852 8.94925 10.852 9.08236C10.852 9.21547 10.8653 9.32196 10.8852 9.39517C10.9385 9.56156 11.0516 9.62146 11.2047 9.62146C11.3511 9.62146 11.4643 9.55491 11.5175 9.39517Z" fill="white"/>
<defs>
<filter id="filter0_d_51752_3237" x="-3.65381" y="0.348381" width="27.2012" height="27.2013" filterUnits="userSpaceOnUse" color-interpolation-filters="sRGB">
<feFlood flood-opacity="0" result="BackgroundImageFix"/>
<feColorMatrix in="SourceAlpha" type="matrix" values="0 0 0 0 0 0 0 0 0 0 0 0 0 0 0 0 0 0 127 0" result="hardAlpha"/>
<feOffset dy="5"/>
<feGaussianBlur stdDeviation="5"/>
<feComposite in2="hardAlpha" operator="out"/>
<feColorMatrix type="matrix" values="0 0 0 0 0.8375 0 0 0 0 0.8375 0 0 0 0 0.8375 0 0 0 0.2 0"/>
<feBlend mode="normal" in2="BackgroundImageFix" result="effect1_dropShadow_51752_3237"/>
<feBlend mode="normal" in="SourceGraphic" in2="effect1_dropShadow_51752_3237" result="shape"/>
</filter>
</defs>
</svg>
