<svg width="16" height="14" viewBox="0 0 16 14" fill="none" xmlns="http://www.w3.org/2000/svg">
<path fill-rule="evenodd" clip-rule="evenodd" d="M0 3.93809C0 2.05637 1.52826 0.5 3.4522 0.5H12.5478C14.4717 0.5 16 2.05637 16 3.93809C16 5.39968 15.0801 6.66246 13.7674 7.1556V10.4474C13.7675 10.6711 13.7675 10.882 13.765 11.0798C13.7666 11.0966 13.7674 11.1135 13.7674 11.1306C13.7674 11.1533 13.766 11.1756 13.7632 11.1975C13.7572 11.5238 13.7428 11.8127 13.708 12.0636C13.6452 12.5161 13.507 12.9246 13.168 13.2528C12.8291 13.5811 12.4073 13.7149 11.9401 13.7757C11.4974 13.8334 10.9399 13.8334 10.2712 13.8333H5.72875C5.06011 13.8334 4.50255 13.8334 4.05992 13.7757C3.59273 13.7149 3.17092 13.5811 2.83197 13.2528C2.49301 12.9246 2.35484 12.5161 2.29203 12.0636C2.2572 11.8127 2.24276 11.5238 2.23678 11.1975C2.23399 11.1756 2.23256 11.1533 2.23256 11.1306C2.23256 11.1135 2.23338 11.0966 2.23499 11.0798C2.23254 10.882 2.23255 10.6711 2.23256 10.4474L2.23256 7.1556C0.919918 6.66246 0 5.39968 0 3.93809ZM2.23256 5.94832C2.23269 5.3449 2.2356 4.83837 2.29203 4.43191C2.35484 3.97944 2.49301 3.57094 2.83197 3.24267C3.17092 2.9144 3.59273 2.78059 4.05992 2.71976C4.50255 2.66212 5.06011 2.66214 5.72874 2.66216H10.2713C10.9399 2.66214 11.4974 2.66212 11.9401 2.71976C12.4073 2.78059 12.8291 2.9144 13.168 3.24267C13.507 3.57094 13.6452 3.97944 13.708 4.43191C13.7644 4.83837 13.7673 5.3449 13.7674 5.94832C14.4327 5.53639 14.8837 4.79573 14.8837 3.93809C14.8837 2.61927 13.8205 1.58108 12.5478 1.58108H3.4522C2.17945 1.58108 1.11628 2.61927 1.11628 3.93809C1.11628 4.79572 1.56734 5.53639 2.23256 5.94832ZM7.44186 3.74324H5.76744C5.05004 3.74324 4.56813 3.74439 4.20866 3.7912C3.86525 3.83591 3.71828 3.91319 3.6213 4.00711C3.52432 4.10103 3.44452 4.24337 3.39835 4.57596C3.35002 4.92409 3.34884 5.3908 3.34884 6.08558V10.4099C3.34884 10.4717 3.34885 10.5318 3.3489 10.5901H12.6511C12.6512 10.5318 12.6512 10.4718 12.6512 10.4099V6.08559C12.6512 5.3908 12.65 4.92409 12.6016 4.57596C12.5555 4.24337 12.4757 4.10103 12.3787 4.00711C12.2817 3.91319 12.1347 3.83591 11.7913 3.7912C11.4319 3.74439 10.95 3.74324 10.2326 3.74324H8.55814V6.78653L9.0646 6.21429C9.26521 5.98762 9.61756 5.96137 9.8516 6.15566C10.0856 6.34994 10.1128 6.69118 9.91214 6.91784L8.42377 8.59953C8.31773 8.71933 8.16293 8.78829 8 8.78829C7.83707 8.78829 7.68227 8.71933 7.57623 8.59953L6.08786 6.91784C5.88725 6.69118 5.91435 6.34994 6.1484 6.15566C6.38244 5.96137 6.73479 5.98762 6.9354 6.21429L7.44186 6.78653V3.74324ZM12.6272 11.6712H3.37279C3.37936 11.7605 3.38771 11.8429 3.39835 11.9195C3.44452 12.2521 3.52432 12.3945 3.6213 12.4884C3.71828 12.5823 3.86525 12.6596 4.20866 12.7043C4.56813 12.7511 5.05004 12.7523 5.76744 12.7523H10.2326C10.95 12.7523 11.4319 12.7511 11.7913 12.7043C12.1347 12.6596 12.2817 12.5823 12.3787 12.4884C12.4757 12.3945 12.5555 12.2521 12.6016 11.9195C12.6123 11.8429 12.6206 11.7605 12.6272 11.6712Z" fill="white"/>
</svg>
