<svg width="360" height="370" viewBox="0 0 360 370" fill="none" xmlns="http://www.w3.org/2000/svg">
<path d="M360 185C360 85.5887 279.411 5 180 5C80.5887 5 0 85.5887 0 185C0 284.411 80.5887 365 180 365C279.411 365 360 284.411 360 185Z" fill="#EF3C60" fill-opacity="0.5"/>
<mask id="mask0_2_10" style="mask-type:luminance" maskUnits="userSpaceOnUse" x="80" y="85" width="200" height="200">
<path d="M280 85H80V285H280V85Z" fill="white"/>
</mask>
<g mask="url(#mask0_2_10)">
<g filter="url(#filter0_d_2_10)">
<path fill-rule="evenodd" clip-rule="evenodd" d="M107.021 105.275C104.227 104.344 101.207 105.854 100.275 108.648C99.3437 111.443 100.854 114.463 103.648 115.394L121.721 121.419L123.535 138.76L128.807 202.561C129.807 214.8 139.839 224.431 152.171 224.431H229.693C241.442 224.431 251.312 215.66 252.953 203.944L259.698 156.376L259.7 156.362C260.439 151.32 260.052 144.683 255.781 139.668C254.056 137.641 252.09 135.881 249.643 134.666C247.163 133.434 244.527 132.93 241.702 132.93H133.65L131.973 116.891C131.755 114.81 130.34 113.048 128.355 112.386L107.021 105.275ZM139.438 201.685L134.638 143.597H241.702C243.212 143.597 244.163 143.854 244.899 144.219C245.667 144.601 246.543 145.272 247.66 146.583C249.07 148.239 249.682 151.174 249.145 154.824L249.14 154.851L242.39 202.457L242.389 202.467C241.469 209.05 235.991 213.765 229.693 213.765H152.171C145.603 213.765 140.002 208.602 139.438 201.685ZM134.9 248.709C134.9 239.774 142.014 232.345 151.034 232.345C160.005 232.345 167.096 239.798 167.096 248.709C167.096 257.571 159.982 265 151.034 265C142.037 265 134.9 257.595 134.9 248.709ZM151.034 243.012C148.116 243.012 145.566 245.452 145.566 248.709C145.566 251.87 148.093 254.333 151.034 254.333C153.88 254.333 156.43 251.893 156.43 248.709C156.43 245.429 153.858 243.012 151.034 243.012ZM214.837 248.709C214.837 239.774 221.952 232.345 230.972 232.345C239.943 232.345 247.035 239.798 247.035 248.709C247.035 257.571 239.921 265 230.972 265C221.975 265 214.837 257.595 214.837 248.709ZM230.972 243.012C228.054 243.012 225.504 245.452 225.504 248.709C225.504 251.87 228.032 254.333 230.972 254.333C233.819 254.333 236.368 251.893 236.368 248.709C236.368 245.429 233.796 243.012 230.972 243.012ZM190.669 161.89C187.723 161.89 185.336 164.278 185.336 167.223C185.336 170.168 187.723 172.556 190.669 172.556H226.225C229.171 172.556 231.559 170.168 231.559 167.223C231.559 164.278 229.171 161.89 226.225 161.89H190.669Z" fill="black"/>
</g>
</g>
<defs>
<filter id="filter0_d_2_10" x="90" y="100" width="180" height="180" filterUnits="userSpaceOnUse" color-interpolation-filters="sRGB">
<feFlood flood-opacity="0" result="BackgroundImageFix"/>
<feColorMatrix in="SourceAlpha" type="matrix" values="0 0 0 0 0 0 0 0 0 0 0 0 0 0 0 0 0 0 127 0" result="hardAlpha"/>
<feOffset dy="5"/>
<feGaussianBlur stdDeviation="5"/>
<feComposite in2="hardAlpha" operator="out"/>
<feColorMatrix type="matrix" values="0 0 0 0 0.8375 0 0 0 0 0.8375 0 0 0 0 0.8375 0 0 0 0.2 0"/>
<feBlend mode="normal" in2="BackgroundImageFix" result="effect1_dropShadow_2_10"/>
<feBlend mode="normal" in="SourceGraphic" in2="effect1_dropShadow_2_10" result="shape"/>
</filter>
</defs>
</svg>
