<svg width="36" height="40" viewBox="0 0 36 40" fill="none" xmlns="http://www.w3.org/2000/svg">
  <rect y="0.5" width="36" height="36" rx="18" fill="#EF933C"/>
  <path d="M23.2093 18.5C23.2093 18.9103 22.8761 19.2429 22.4651 19.2429C22.0541 19.2429 21.7209 18.9103 21.7209 18.5C21.7209 18.0897 22.0541 17.7571 22.4651 17.7571C22.8761 17.7571 23.2093 18.0897 23.2093 18.5Z" fill="white"/>
  <path fill-rule="evenodd" clip-rule="evenodd" d="M16.4696 12H18.7862C20.1538 12 21.2371 12 22.0848 12.1138C22.9573 12.2309 23.6635 12.4776 24.2205 13.0335C24.9084 13.7202 25.1276 14.6398 25.2072 15.8332C25.6368 16.0219 25.9611 16.421 25.9969 16.9265C26 16.9712 26 17.0194 26 17.0641C26 17.0681 26 17.0722 26 17.0762V19.9238C26 19.9278 26 19.9319 26 19.9359C26 19.9806 26 20.0288 25.9969 20.0735C25.9611 20.579 25.6368 20.9781 25.2072 21.1668C25.1276 22.3602 24.9084 23.2798 24.2205 23.9665C23.6635 24.5224 22.9573 24.7691 22.0848 24.8862C21.2371 25 20.1538 25 18.7862 25H16.4696C15.102 25 14.0187 25 13.171 24.8862C12.2985 24.7691 11.5923 24.5224 11.0353 23.9665C10.4784 23.4106 10.2313 22.7056 10.114 21.8347C9.99998 20.9884 9.99999 19.9071 10 18.5419V18.4581C9.99999 17.0929 9.99998 16.0116 10.114 15.1653C10.2313 14.2944 10.4784 13.5894 11.0353 13.0335C11.5923 12.4776 12.2985 12.2309 13.171 12.1138C14.0187 12 15.102 12 16.4696 12ZM24.0784 21.2857H22.6368C21.0404 21.2857 19.6744 20.0767 19.6744 18.5C19.6744 16.9233 21.0404 15.7143 22.6368 15.7143H24.0784C23.9937 14.7178 23.8021 14.1918 23.4311 13.8214C23.1162 13.507 22.6848 13.3186 21.9361 13.2181C21.1713 13.1155 20.1632 13.1143 18.7442 13.1143H16.5116C15.0926 13.1143 14.0845 13.1155 13.3197 13.2181C12.571 13.3186 12.1396 13.507 11.8247 13.8214C11.5097 14.1358 11.3209 14.5664 11.2203 15.3138C11.1175 16.0772 11.1163 17.0835 11.1163 18.5C11.1163 19.9165 11.1175 20.9228 11.2203 21.6862C11.3209 22.4336 11.5097 22.8642 11.8247 23.1786C12.1396 23.493 12.571 23.6814 13.3197 23.7819C14.0845 23.8845 15.0926 23.8857 16.5116 23.8857H18.7442C20.1632 23.8857 21.1713 23.8845 21.9361 23.7819C22.6848 23.6814 23.1162 23.493 23.4311 23.1786C23.8021 22.8083 23.9937 22.2822 24.0784 21.2857ZM24.6408 16.8287C24.6256 16.8286 24.6058 16.8286 24.5736 16.8286H22.6368C21.5776 16.8286 20.7907 17.6151 20.7907 18.5C20.7907 19.3849 21.5776 20.1714 22.6368 20.1714H24.5736C24.6058 20.1714 24.6256 20.1714 24.6408 20.1713C24.65 20.1712 24.6549 20.171 24.6572 20.1709L24.6589 20.1709C24.8123 20.1615 24.8783 20.0582 24.8833 19.996C24.8833 19.996 24.8835 19.9914 24.8835 19.9847C24.8837 19.9715 24.8837 19.9539 24.8837 19.9238V17.0762C24.8837 17.0461 24.8837 17.0285 24.8835 17.0153C24.8835 17.0086 24.8833 17.004 24.8833 17.004C24.8783 16.9418 24.8123 16.8385 24.6589 16.8291C24.6589 16.8291 24.6552 16.8289 24.6408 16.8287ZM14.2791 15.7143C14.5873 15.7143 14.8372 15.9637 14.8372 16.2714V20.7286C14.8372 21.0363 14.5873 21.2857 14.2791 21.2857C13.9708 21.2857 13.7209 21.0363 13.7209 20.7286V16.2714C13.7209 15.9637 13.9708 15.7143 14.2791 15.7143Z" fill="white"/>
</svg>